<?xml version="1.0" encoding="iso-8859-1"?>
<!-- Generator: Adobe Illustrator 19.0.0, SVG Export Plug-In . SVG Version: 6.00 Build 0)  -->
<svg version="1.1" id="Layer_1" xmlns="http://www.w3.org/2000/svg" xmlns:xlink="http://www.w3.org/1999/xlink" x="0px" y="0px"
	 viewBox="0 0 496.158 496.158" style="enable-background:new 0 0 496.158 496.158;" xml:space="preserve">
<path style="fill:#EB9783;" d="M248.082,0.003C111.07,0.003,0,111.063,0,248.085c0,137.001,111.07,248.07,248.082,248.07
	c137.006,0,248.076-111.069,248.076-248.07C496.158,111.062,385.088,0.003,248.082,0.003z"/>
<path style="fill:#E8DCCA;" d="M392.07,147.374c0.004-0.274,0.032-0.535,0.032-0.811c0-27.111-19.214-46.787-45.688-46.787
	l-197.762,0.101c-26.811,0-45.552,19.519-45.676,47.497h-0.414v210.114h1.231c3.917,22.117,21.571,37.348,44.858,37.348
	l197.762-0.101c23.395,0,40.643-14.87,44.741-37.247h1.275V147.374H392.07z"/>
<path style="fill:#EDE6DD;" d="M392.07,147.374c0.004-0.274,0.032-0.535,0.032-0.811c0-27.111-19.214-46.787-45.688-46.787
	l-191.629,0.101v209.03l201.619-1.812l25.498,16.386l10.528,34.007V147.374H392.07z"/>
<g>
	<path style="fill:#CEC8C0;" d="M347.906,301.793H155.894c-3.354,0-6.072,2.719-6.072,6.073s2.719,6.072,6.072,6.072h192.012
		c19.75,0,33.543,14.246,33.543,34.643c0,21.643-13.167,35.627-33.543,35.627l-212.895,0.102c-11.904,0-19.902-8.288-19.902-20.623
		c0-11.336,4.655-23.449,17.721-23.449l205.551-0.001c4.269,0,9.776,4.923,9.776,10.152c0,5.206-2.839,8.314-7.597,8.314H148.664
		c-3.354,0-6.07,2.719-6.07,6.073s2.717,6.072,6.07,6.072H340.56c11.44,0,19.742-8.605,19.742-20.46
		c0-11.462-10.652-22.298-21.922-22.298l-205.551,0.001c-17.863,0-29.866,14.304-29.866,35.595
		c0,18.987,13.478,32.769,32.048,32.769l212.895-0.102c26.901,0,45.689-19.645,45.689-47.772
		C393.596,321.47,374.381,301.793,347.906,301.793z"/>
	<path style="fill:#CEC8C0;" d="M148.712,99.703v207.989c0,3.355,2.72,6.073,6.073,6.073s6.072-2.718,6.072-6.073V99.703H148.712z"
		/>
</g>
<path style="fill:#C1A857;" d="M346.616,186.776l-198.329,0.101c-26.887,0-45.682,19.574-45.806,47.633v44.569
	c0.124-28.059,18.919-47.633,45.806-47.633l198.329-0.101c26.55,0,45.819,19.732,45.819,46.922c0,0.275,0-44.294,0-44.57
	C392.435,206.508,373.166,186.776,346.616,186.776z"/>
<path style="fill:#B29952;" d="M346.616,186.776l-198.329,0.101c-26.887,0-45.682,19.574-45.806,47.633v22
	c0.124-28.059,18.919-47.633,45.806-47.633l198.329-0.101c26.55,0,45.819,19.731,45.819,46.921v-22
	C392.435,206.508,373.166,186.776,346.616,186.776z"/>
<g>
</g>
<g>
</g>
<g>
</g>
<g>
</g>
<g>
</g>
<g>
</g>
<g>
</g>
<g>
</g>
<g>
</g>
<g>
</g>
<g>
</g>
<g>
</g>
<g>
</g>
<g>
</g>
<g>
</g>
</svg>
