<?xml version="1.0" encoding="iso-8859-1"?>
<!-- Generator: Adobe Illustrator 19.0.0, SVG Export Plug-In . SVG Version: 6.00 Build 0)  -->
<svg version="1.1" id="Layer_1" xmlns="http://www.w3.org/2000/svg" xmlns:xlink="http://www.w3.org/1999/xlink" x="0px" y="0px"
	 viewBox="0 0 512 512" style="enable-background:new 0 0 512 512;" xml:space="preserve">
<g transform="translate(0 1)">
	<g>
		<path style="fill:#FFE100;" d="M389.12,70.68c-4.267-56.32-13.653-46.08-13.653-46.08L256,196.973l14.507,55.467l93.013-105.813
			C382.293,126.147,390.827,98.84,389.12,70.68"/>
		<path style="fill:#FFE100;" d="M378.88,465.773c-5.973,6.827-15.36,3.413-25.6,3.413c-18.773,0-23.04-15.36-28.16-33.28
			s16.213-30.72,28.16-34.987c17.92-5.973,42.667,15.36,42.667,34.133c0,8.533-3.413,16.213-8.533,22.187 M353.28,366.787
			c-37.547,0-51.2,30.72-51.2,68.267s13.653,68.267,51.2,68.267s68.267-30.72,68.267-68.267S390.827,366.787,353.28,366.787"/>
	</g>
	<path style="fill:#FFA800;" d="M366.08,366.787c-2.56,0-5.12,0-7.68,0c34.133,3.413,60.587,32.427,60.587,68.267
		s-26.453,64-60.587,67.413c2.56,0,5.12,0,7.68,0c37.547,0,68.267-30.72,68.267-68.267S403.627,366.787,366.08,366.787"/>
	<g>
		<path style="fill:#FFE100;" d="M384,366.787c-2.56,0-5.12,0-7.68,0c34.133,3.413,60.587,32.427,60.587,68.267
			s-26.453,64-60.587,68.267c2.56,0,5.12,0,7.68,0c37.547,0,68.267-30.72,68.267-68.267S421.547,366.787,384,366.787"/>
		<path style="fill:#FFE100;" d="M346.453,374.467L102.4,24.6c0,0-7.68-1.707-11.947,54.613c-1.707,28.16,6.827,55.467,25.6,76.8
			L315.733,383C326.827,371.907,329.387,375.32,346.453,374.467"/>
	</g>
	<path style="fill:#FFA800;" d="M341.333,367.64c5.973-2.56,13.653-0.853,20.48-1.707L109.227,7.533c0,0-3.413,5.12-6.827,18.773
		L341.333,367.64z"/>
	<path style="fill:#FFE100;" d="M205.653,263.533L133.12,366.787c17.067,0.853,19.627-2.56,31.573,8.533l68.267-77.653
		L205.653,263.533z"/>
	<path style="fill:#FFA800;" d="M235.52,294.253l-75.093,83.627c6.827,3.413,12.8,7.68,18.773,12.8l68.267-77.653L235.52,294.253z"
		/>
	<path style="fill:#FFE100;" d="M298.667,272.067l68.267,102.4c3.413-6.827,11.947-3.413,17.067-8.533l-68.267-102.4
		L298.667,272.067z"/>
	<path style="fill:#FFA800;" d="M409.6,80.92c-4.267-55.467-15.36-73.387-15.36-73.387l-13.653,18.773
		c2.56,4.267,5.973,16.213,8.533,44.373c1.707,28.16-6.827,55.467-25.6,76.8l-85.333,97.28l13.653,18.773L384,157.72
		C402.773,136.387,411.307,109.08,409.6,80.92"/>
	<path style="fill:#FFE100;" d="M428.373,97.987c0.853-31.573-5.12-52.907-6.827-65.707c-0.853-8.533-8.533-17.067-16.213-19.627
		l-11.093-5.12c2.56,4.267,10.24,52.053,11.947,80.213s-6.827,55.467-25.6,76.8l-85.333,97.28L307.2,278.04l90.453-104.96
		C415.573,151.747,428.373,126.147,428.373,97.987"/>
	<path style="fill:#FFFFFF;" d="M93.867,81.773c4.267-56.32,15.36-74.24,15.36-74.24l1.707,18.773
		c-2.56,4.267-3.413,13.653-5.973,42.667c-1.707,28.16,12.8,59.733,31.573,81.067l192.853,221.013l-11.947,8.533L119.467,157.72
		C100.693,137.24,92.16,109.08,93.867,81.773"/>
	<path d="M320,393.24C319.147,393.24,319.147,393.24,320,393.24c-2.56,0-5.12-0.853-6.827-2.56L114.347,163.693
		C94.72,140.653,84.48,110.787,87.04,80.92C91.307,24.6,102.4,4.973,104.107,3.267C104.96,0.707,107.52-1,110.933-1
		c2.56,0,5.973,1.707,6.827,3.413l252.587,358.4c1.707,2.56,1.707,5.973,0.853,8.533c-1.707,3.413-4.267,5.12-6.827,5.12
		c-14.507,0.853-28.16,6.827-38.4,16.213C324.267,392.387,321.707,393.24,320,393.24z M113.493,25.453
		c-3.413,11.093-7.68,29.013-9.387,56.32c-1.707,25.6,6.827,51.2,23.04,69.973L320.853,372.76
		c8.533-5.973,17.92-11.093,28.16-13.653L113.493,25.453z"/>
	<path d="M290.987,272.067L290.987,272.067c-3.413,0-5.12-1.707-6.827-3.413l-39.253-56.32c-1.707-2.56-1.707-6.827,0-10.24
		L386.56,2.413C388.267-0.147,390.827-1,394.24-1c2.56,0,5.12,1.707,6.827,4.267c0.853,1.707,12.8,21.333,17.067,77.653l0,0
		c2.56,29.867-7.68,60.587-27.307,82.773l-93.013,104.96C296.107,271.213,293.547,272.067,290.987,272.067z M262.827,208.067
		l29.013,41.813l86.187-97.28c16.213-18.773,24.747-44.373,23.04-69.973l0,0c-1.707-28.16-5.973-46.08-9.387-56.32L262.827,208.067z
		"/>
	<path d="M183.467,393.24c-2.56,0-4.267-0.853-5.973-2.56c-10.24-10.24-23.893-16.213-38.4-16.213c-3.413,0-5.973-1.707-7.68-5.12
		c-1.707-3.413-0.853-5.973,0.853-8.533L204.8,257.56c1.707-1.707,4.267-3.413,6.827-3.413c2.56,0,5.12,0.853,6.827,2.56
		l39.253,44.373c2.56,3.413,2.56,7.68,0,11.093l-68.267,77.653C188.587,392.387,186.88,393.24,183.467,393.24
		C184.32,393.24,184.32,393.24,183.467,393.24z M155.307,359.96c10.24,2.56,19.627,6.827,28.16,13.653l57.173-65.707l-27.307-30.72
		L155.307,359.96z"/>
	<path d="M366.933,511c-42.667,0-76.8-34.133-76.8-76.8s34.133-76.8,76.8-76.8s76.8,34.133,76.8,76.8S409.6,511,366.933,511z
		 M366.933,374.467c-33.28,0-59.733,26.453-59.733,59.733s26.453,59.733,59.733,59.733s59.733-26.453,59.733-59.733
		S400.213,374.467,366.933,374.467z M366.933,476.867c-23.893,0-42.667-18.773-42.667-42.667c0-23.893,18.773-42.667,42.667-42.667
		c23.893,0,42.667,18.773,42.667,42.667c0,10.24-3.413,20.48-10.24,28.16C390.827,471.747,378.88,476.867,366.933,476.867z
		 M366.933,408.6c-14.507,0-25.6,11.093-25.6,25.6c0,14.507,11.093,25.6,25.6,25.6c7.68,0,14.507-3.413,18.773-8.533l0,0
		c4.267-4.267,6.827-11.093,6.827-17.067C392.533,419.693,381.44,408.6,366.933,408.6z"/>
	<path style="fill:#FFE100;" d="M162.133,456.387c-5.973,6.827-15.36,11.947-25.6,11.947c-18.773,0-34.133-15.36-34.133-34.133
		c0-18.773,15.36-34.133,34.133-34.133s34.133,15.36,34.133,34.133C170.667,442.733,167.253,450.413,162.133,456.387
		 M136.533,365.933c-37.547,0-68.267,30.72-68.267,68.267s30.72,68.267,68.267,68.267S204.8,471.747,204.8,434.2
		S174.08,365.933,136.533,365.933"/>
	<path style="fill:#FFFFFF;" d="M136.533,503.32c2.56,0,5.12,0,7.68,0c-34.133-3.413-60.587-32.427-60.587-68.267
		s26.453-64,60.587-68.267c-2.56,0-5.12,0-7.68,0c-37.547,0-68.267,30.72-68.267,68.267S98.987,503.32,136.533,503.32"/>
	<path d="M136.533,511c-42.667,0-76.8-34.133-76.8-76.8s34.133-76.8,76.8-76.8s76.8,34.133,76.8,76.8S179.2,511,136.533,511z
		 M136.533,374.467c-33.28,0-59.733,26.453-59.733,59.733s26.453,59.733,59.733,59.733s59.733-26.453,59.733-59.733
		S169.813,374.467,136.533,374.467z M136.533,476.867c-23.893,0-42.667-18.773-42.667-42.667c0-23.893,18.773-42.667,42.667-42.667
		S179.2,410.307,179.2,434.2c0,10.24-3.413,20.48-10.24,28.16C160.427,471.747,148.48,476.867,136.533,476.867z M136.533,408.6
		c-14.507,0-25.6,11.093-25.6,25.6c0,14.507,11.093,25.6,25.6,25.6c7.68,0,14.507-3.413,18.773-8.533l0,0
		c4.267-4.267,6.827-11.093,6.827-17.067C162.133,419.693,151.04,408.6,136.533,408.6z"/>
</g>
<g>
</g>
<g>
</g>
<g>
</g>
<g>
</g>
<g>
</g>
<g>
</g>
<g>
</g>
<g>
</g>
<g>
</g>
<g>
</g>
<g>
</g>
<g>
</g>
<g>
</g>
<g>
</g>
<g>
</g>
</svg>
